<svg width="33" height="33" viewBox="0 0 33 33" fill="none" xmlns="http://www.w3.org/2000/svg">
<path d="M29.8099 27.8931L29.8098 27.8931L23.7109 21.7953C25.4695 19.5948 26.3415 16.8122 26.1493 13.9963C25.9518 11.1043 24.647 8.39971 22.5063 6.44522C20.3656 4.49074 17.5538 3.43681 14.6558 3.50267C11.7578 3.56853 8.99675 4.74912 6.94703 6.79884C4.89731 8.84855 3.71672 11.6096 3.65086 14.5076C3.585 17.4056 4.63893 20.2174 6.59342 22.3581C8.5479 24.4988 11.2525 25.8036 14.1445 26.0011C16.9604 26.1934 19.743 25.3213 21.9435 23.5627L28.0413 29.6616L28.0413 29.6617C28.1574 29.7778 28.2953 29.8699 28.447 29.9327C28.5987 29.9956 28.7614 30.0279 28.9256 30.0279C29.0898 30.0279 29.2524 29.9956 29.4041 29.9327C29.5559 29.8699 29.6937 29.7778 29.8099 29.6617C29.926 29.5455 30.0181 29.4077 30.0809 29.256C30.1438 29.1042 30.1761 28.9416 30.1761 28.7774C30.1761 28.6132 30.1438 28.4505 30.0809 28.2988C30.0181 28.1471 29.926 28.0092 29.8099 27.8931ZM6.17558 14.7773C6.17559 13.0468 6.68877 11.3551 7.65022 9.91614C8.61168 8.47721 9.97824 7.35571 11.5771 6.69344C13.176 6.03117 14.9353 5.85789 16.6326 6.19551C18.33 6.53313 19.8891 7.36649 21.1128 8.5902C22.3365 9.81391 23.1698 11.373 23.5075 13.0703C23.8451 14.7677 23.6718 16.527 23.0095 18.1259C22.3473 19.7247 21.2257 21.0913 19.7868 22.0527C18.348 23.0142 16.6563 23.5273 14.9259 23.5274C12.6059 23.5248 10.3818 22.6021 8.74132 20.9616C7.10093 19.3213 6.17821 17.0972 6.17558 14.7773Z" fill="black" stroke="black" stroke-width="0.5"/>
</svg>
