<svg width="32" height="32" viewBox="0 0 32 32" fill="none" xmlns="http://www.w3.org/2000/svg">
<path d="M28.7075 6.29329L24.7075 2.29329C24.6146 2.20031 24.5043 2.12655 24.3829 2.07623C24.2615 2.0259 24.1314 2 24 2C23.8686 2 23.7385 2.0259 23.6171 2.07623C23.4957 2.12655 23.3854 2.20031 23.2925 2.29329L11.2925 14.2933C11.1997 14.3862 11.1261 14.4965 11.0759 14.6179C11.0257 14.7393 10.9999 14.8694 11 15.0008V19.0008C11 19.266 11.1054 19.5204 11.2929 19.7079C11.4804 19.8954 11.7348 20.0008 12 20.0008H16C16.1314 20.0009 16.2615 19.9751 16.3829 19.9249C16.5042 19.8747 16.6146 19.8011 16.7075 19.7083L28.7075 7.70829C28.8005 7.61541 28.8742 7.50513 28.9246 7.38373C28.9749 7.26233 29.0008 7.1322 29.0008 7.00079C29.0008 6.86937 28.9749 6.73924 28.9246 6.61785C28.8742 6.49645 28.8005 6.38616 28.7075 6.29329ZM15.5863 18.0008H13V15.4145L21 7.41454L23.5863 10.0008L15.5863 18.0008ZM25 8.58704L22.4137 6.00079L24 4.41454L26.5863 7.00079L25 8.58704ZM28 14.0008V25.0008C28 25.5312 27.7893 26.0399 27.4142 26.415C27.0391 26.7901 26.5304 27.0008 26 27.0008H6C5.46957 27.0008 4.96086 26.7901 4.58579 26.415C4.21071 26.0399 4 25.5312 4 25.0008V5.00079C4 4.47035 4.21071 3.96165 4.58579 3.58657C4.96086 3.2115 5.46957 3.00079 6 3.00079H17C17.2652 3.00079 17.5196 3.10614 17.7071 3.29368C17.8946 3.48122 18 3.73557 18 4.00079C18 4.266 17.8946 4.52036 17.7071 4.70789C17.5196 4.89543 17.2652 5.00079 17 5.00079H6V25.0008H26V14.0008C26 13.7356 26.1054 13.4812 26.2929 13.2937C26.4804 13.1061 26.7348 13.0008 27 13.0008C27.2652 13.0008 27.5196 13.1061 27.7071 13.2937C27.8946 13.4812 28 13.7356 28 14.0008Z" fill="black"/>
</svg>
