<svg width="32" height="32" viewBox="0 0 32 32" fill="none" xmlns="http://www.w3.org/2000/svg">
<rect x="3" y="3" width="26" height="26" rx="13" fill="black"/>
<path d="M18.7083 11.7081L14.4145 16.0006L18.7083 20.2931C18.8012 20.386 18.8749 20.4963 18.9252 20.6177C18.9755 20.7391 19.0013 20.8692 19.0013 21.0006C19.0013 21.1319 18.9755 21.2621 18.9252 21.3835C18.8749 21.5048 18.8012 21.6151 18.7083 21.7081C18.6154 21.801 18.5051 21.8747 18.3837 21.9249C18.2623 21.9752 18.1322 22.0011 18.0008 22.0011C17.8694 22.0011 17.7393 21.9752 17.6179 21.9249C17.4965 21.8747 17.3862 21.801 17.2933 21.7081L12.2933 16.7081C12.2003 16.6152 12.1266 16.5049 12.0762 16.3835C12.0259 16.2621 12 16.132 12 16.0006C12 15.8691 12.0259 15.739 12.0762 15.6176C12.1266 15.4962 12.2003 15.3859 12.2933 15.2931L17.2933 10.2931C17.3862 10.2001 17.4965 10.1264 17.6179 10.0762C17.7393 10.0259 17.8694 10 18.0008 10C18.1322 10 18.2623 10.0259 18.3837 10.0762C18.5051 10.1264 18.6154 10.2001 18.7083 10.2931C18.8012 10.386 18.8749 10.4963 18.9252 10.6177C18.9755 10.7391 19.0013 10.8692 19.0013 11.0006C19.0013 11.132 18.9755 11.2621 18.9252 11.3835C18.8749 11.5048 18.8012 11.6151 18.7083 11.7081Z" fill="#FFDF28"/>
</svg>
