<svg width="32" height="32" viewBox="0 0 32 32" fill="none" xmlns="http://www.w3.org/2000/svg">
<rect x="3" y="3" width="26" height="26" rx="13" fill="black"/>
<path d="M13.2931 20.293L17.5868 16.0005L13.2931 11.708C13.2001 11.6151 13.1264 11.5048 13.0762 11.3834C13.0259 11.262 13 11.1319 13 11.0005C13 10.8691 13.0259 10.739 13.0762 10.6176C13.1264 10.4963 13.2001 10.386 13.2931 10.293C13.386 10.2001 13.4963 10.1264 13.6177 10.0762C13.7391 10.0259 13.8692 9.99999 14.0006 9.99999C14.132 9.99999 14.2621 10.0259 14.3835 10.0762C14.5048 10.1264 14.6151 10.2001 14.7081 10.293L19.7081 15.293C19.801 15.3859 19.8748 15.4962 19.9251 15.6176C19.9754 15.739 20.0013 15.8691 20.0013 16.0005C20.0013 16.132 19.9754 16.2621 19.9251 16.3835C19.8748 16.5049 19.801 16.6152 19.7081 16.708L14.7081 21.708C14.6151 21.801 14.5048 21.8747 14.3835 21.9249C14.2621 21.9752 14.132 22.0011 14.0006 22.0011C13.8692 22.0011 13.7391 21.9752 13.6177 21.9249C13.4963 21.8747 13.386 21.801 13.2931 21.708C13.2001 21.6151 13.1264 21.5048 13.0762 21.3834C13.0259 21.262 13 21.1319 13 21.0005C13 20.8691 13.0259 20.739 13.0762 20.6176C13.1264 20.4963 13.2001 20.386 13.2931 20.293Z" fill="#FFDF28"/>
</svg>
