<svg width="32" height="32" viewBox="0 0 32 32" fill="none" xmlns="http://www.w3.org/2000/svg">
<path d="M29.9228 7.618C29.8471 7.43526 29.719 7.27906 29.5546 7.16915C29.3901 7.05923 29.1968 7.00055 28.999 7.0005H25.1953C24.6635 6.09573 23.9066 5.34395 22.9982 4.81826C22.0899 4.29257 21.061 4.01086 20.0115 4.0005C19.2297 3.99025 18.4537 4.13647 17.7291 4.43057C17.0046 4.72466 16.3463 5.16069 15.7928 5.713C15.2231 6.27203 14.771 6.93931 14.4629 7.67561C14.1549 8.41191 13.9972 9.20237 13.999 10.0005V10.7618C8.96652 9.43425 4.85027 5.3405 4.80652 5.29675C4.67236 5.16141 4.50232 5.06721 4.31642 5.02526C4.13052 4.98332 3.9365 4.99536 3.75722 5.05998C3.57794 5.1246 3.42085 5.23911 3.30446 5.39001C3.18807 5.54092 3.11723 5.72194 3.10027 5.91175C2.56152 11.8855 4.29652 15.883 5.85027 18.1843C6.60787 19.3219 7.5295 20.3412 8.58527 21.2093C6.68152 23.4005 3.68402 24.5518 3.65152 24.5643C3.51042 24.6171 3.38308 24.7012 3.27902 24.8101C3.17496 24.9191 3.09688 25.0502 3.0506 25.1936C3.00432 25.337 2.99105 25.489 3.01177 25.6383C3.0325 25.7875 3.08668 25.9301 3.17027 26.0555C3.26402 26.1955 3.63902 26.6868 4.55527 27.1455C5.68777 27.713 7.18402 28.0005 8.99902 28.0005C17.8328 28.0005 25.214 21.198 25.9678 12.4455L29.7065 8.708C29.8463 8.56808 29.9415 8.38983 29.98 8.19581C30.0185 8.00179 29.9986 7.80071 29.9228 7.618ZM24.2978 11.2943C24.1263 11.4661 24.0232 11.6945 24.0078 11.9368C23.499 19.823 16.909 26.0005 8.99902 26.0005C7.67902 26.0005 6.74902 25.8255 6.09652 25.6155C7.53527 24.8343 9.54152 23.4905 10.8315 21.5555C10.9072 21.4417 10.9588 21.3136 10.9831 21.1791C11.0074 21.0446 11.0038 20.9066 10.9727 20.7735C10.9415 20.6405 10.8834 20.5152 10.8019 20.4055C10.7205 20.2957 10.6174 20.2038 10.499 20.1355C10.4403 20.1018 5.01027 16.843 4.99902 8.1355C6.99902 9.7605 10.6553 12.2818 14.8328 12.9843C14.9759 13.0084 15.1227 13.0011 15.2627 12.9628C15.4028 12.9245 15.5328 12.8562 15.6438 12.7626C15.7548 12.6689 15.844 12.5523 15.9054 12.4207C15.9667 12.2891 15.9987 12.1457 15.999 12.0005V10.0005C15.9979 9.46707 16.1035 8.93879 16.3096 8.44677C16.5157 7.95474 16.8181 7.50891 17.199 7.1355C17.5642 6.76963 17.9991 6.48067 18.4778 6.28573C18.9566 6.09078 19.4696 5.99379 19.9865 6.0005C21.569 6.0205 23.0478 6.9855 23.6665 8.40175C23.7445 8.57981 23.8727 8.73128 24.0355 8.83762C24.1982 8.94395 24.3884 9.00056 24.5828 9.0005H26.5828L24.2978 11.2943Z" fill="black"/>
</svg>
