<svg width="32" height="32" viewBox="0 0 32 32" fill="none" xmlns="http://www.w3.org/2000/svg">
<path d="M26 9H22V6C22 4.4087 21.3679 2.88258 20.2426 1.75736C19.1174 0.632141 17.5913 0 16 0C14.4087 0 12.8826 0.632141 11.7574 1.75736C10.6321 2.88258 10 4.4087 10 6V9H6C5.46957 9 4.96086 9.21071 4.58579 9.58579C4.21071 9.96086 4 10.4696 4 11V25C4 25.5304 4.21071 26.0391 4.58579 26.4142C4.96086 26.7893 5.46957 27 6 27H26C26.5304 27 27.0391 26.7893 27.4142 26.4142C27.7893 26.0391 28 25.5304 28 25V11C28 10.4696 27.7893 9.96086 27.4142 9.58579C27.0391 9.21071 26.5304 9 26 9ZM12 6C12 4.93913 12.4214 3.92172 13.1716 3.17157C13.9217 2.42143 14.9391 2 16 2C17.0609 2 18.0783 2.42143 18.8284 3.17157C19.5786 3.92172 20 4.93913 20 6V9H12V6ZM26 25H6V11H26V25ZM17.5 18C17.5 18.2967 17.412 18.5867 17.2472 18.8334C17.0824 19.08 16.8481 19.2723 16.574 19.3858C16.2999 19.4993 15.9983 19.5291 15.7074 19.4712C15.4164 19.4133 15.1491 19.2704 14.9393 19.0607C14.7296 18.8509 14.5867 18.5836 14.5288 18.2926C14.4709 18.0017 14.5006 17.7001 14.6142 17.426C14.7277 17.1519 14.92 16.9176 15.1666 16.7528C15.4133 16.588 15.7033 16.5 16 16.5C16.3978 16.5 16.7794 16.658 17.0607 16.9393C17.342 17.2206 17.5 17.6022 17.5 18Z" fill="black"/>
</svg>
